# OBJ generated by ONSHAPE BY PTC INC, 1.203 Units = meters
mtllib a2rl_quad.mtl
g Part 1
v 0.1498 0.106718 0.018 
v 0.149061 0.110075 0.018 
v 0.147618 0.113194 0.018 
v 0.145538 0.115929 0.018 
v 0.142919 0.118154 0.018 
v 0.139883 0.119764 0.018 
v 0.136571 0.120683 0.018 
v 0.13314 0.120869 0.018 
v 0.129748 0.120314 0.018 
v 0.126556 0.119041 0.018 
v 0.123711 0.117113 0.018 
v 0.121348 0.114618 0.018 
v 0.119576 0.111673 0.018 
v 0.118479 0.108416 0.018 
v 0.118107 0.105 0.018 
v 0.118479 0.101584 0.018 
v 0.119576 0.0983268 0.018 
v 0.121348 0.0953821 0.018 
v 0.123711 0.0928871 0.018 
v 0.126556 0.0909585 0.018 
v 0.129748 0.0896865 0.018 
v 0.13314 0.0891305 0.018 
v 0.136571 0.0893166 0.018 
v 0.139883 0.090236 0.018 
v 0.142919 0.0918457 0.018 
v 0.145538 0.0940705 0.018 
v 0.147618 0.0968064 0.018 
v 0.149061 0.0999254 0.018 
v 0.1498 0.103282 0.018 
v 0.149893 0.105 0.018 
v 0.134 0.105 0.018 
v 0.118107 0.105 0 
v 0.118479 0.108416 0 
v 0.119576 0.111673 0 
v 0.121348 0.114618 0 
v 0.123711 0.117113 0 
v 0.126556 0.119041 0 
v 0.129748 0.120314 0 
v 0.13314 0.120869 0 
v 0.136571 0.120683 0 
v 0.139883 0.119764 0 
v 0.142919 0.118154 0 
v 0.145538 0.115929 0 
v 0.147618 0.113194 0 
v 0.149061 0.110075 0 
v 0.1498 0.103282 0 
v 0.1498 0.106718 0 
v 0.149061 0.0999254 0 
v 0.147618 0.0968064 0 
v 0.145538 0.0940705 0 
v 0.142919 0.0918457 0 
v 0.139883 0.090236 0 
v 0.136571 0.0893166 0 
v 0.13314 0.0891305 0 
v 0.118479 0.101584 0 
v 0.118711 0.100661 0.003 
v 0.118711 0.100661 0 
v 0.121348 0.0953821 0.003 
v 0.123711 0.0928871 0.003 
v 0.126556 0.0909585 0.003 
v 0.129748 0.0896865 0 
v 0.127946 0.0903055 0.003 
v 0.127946 0.0903055 0 
v 0.119576 0.0983268 0.003 
v 0.047441 0.0185121 0.003 
v 0.0502829 0.0210465 0 
v 0.0329537 0.0241832 0 
v 0.0301119 0.0216489 0.003 
v -0.0580186 -7.59536e-18 0.04 
v -0.00464842 0.0279408 0.003 
v -0.118529 0.0516029 0 
v -0.118529 0.0109529 0.04 
v -0.0308037 0.0326751 0.003 
v -0.035093 0.0365003 0 
v 0.166556 0 0 
v -0.00893771 0.0317659 0 
v -0.118529 -0.0516029 0 
v -0.118529 -0.0109529 0.04 
v -0.127946 0.119306 0.003 
v -0.127946 0.119306 0 
v -0.118711 0.129661 0.003 
v -0.118711 0.129661 0 
v -0.120382 0.125806 0.003 
v -0.122462 0.123071 0.003 
v -0.118939 0.128925 0.003 
v -0.125081 0.120846 0.003 
v -0.149893 0.134 0 
v -0.149893 0.134 0.018 
v -0.149521 0.137416 0.018 
v -0.149521 0.137416 0 
v -0.148424 0.140673 0.018 
v -0.148424 0.140673 0 
v -0.146652 0.143618 0.018 
v -0.146652 0.143618 0 
v -0.144289 0.146113 0.018 
v -0.144289 0.146113 0 
v -0.141444 0.148041 0.018 
v -0.141444 0.148041 0 
v -0.138252 0.149314 0.018 
v -0.138252 0.149314 0 
v -0.13486 0.149869 0.018 
v -0.13486 0.149869 0 
v -0.131429 0.149683 0.018 
v -0.131429 0.149683 0 
v -0.128117 0.148764 0.018 
v -0.128117 0.148764 0 
v -0.125081 0.147154 0.018 
v -0.125081 0.147154 0 
v -0.122462 0.144929 0.018 
v -0.122462 0.144929 0 
v -0.120382 0.142194 0.018 
v -0.120382 0.142194 0 
v -0.118939 0.139075 0.018 
v -0.118939 0.139075 0 
v -0.1182 0.135718 0.018 
v -0.1182 0.132282 0 
v -0.1182 0.135718 0 
v -0.118107 0.134 0.018 
v -0.128117 0.119236 0 
v -0.128117 0.119236 0.018 
v -0.131429 0.118317 0.018 
v -0.131429 0.118317 0 
v -0.13486 0.118131 0.018 
v -0.13486 0.118131 0 
v -0.138252 0.118686 0.018 
v -0.138252 0.118686 0 
v -0.141444 0.119959 0.018 
v -0.141444 0.119959 0 
v -0.144289 0.121887 0.018 
v -0.144289 0.121887 0 
v -0.146652 0.124382 0.018 
v -0.146652 0.124382 0 
v -0.148424 0.127327 0.018 
v -0.148424 0.127327 0 
v -0.149521 0.130584 0.018 
v -0.149521 0.130584 0 
v -0.125081 0.120846 0.018 
v -0.122462 0.123071 0.018 
v -0.120382 0.125806 0.018 
v -0.118939 0.128925 0.018 
v -0.1182 0.132282 0.018 
v -0.134 0.134 0.018 
v 0.139883 -0.119764 0 
v 0.123711 -0.117113 0 
v 0.121348 -0.114618 0 
v 0.136571 -0.120683 0 
v 0.13314 -0.120869 0 
v 0.129748 -0.120314 0 
v -0.146652 -0.124382 0 
v -0.144289 -0.121887 0 
v -0.141444 -0.119959 0 
v -0.128117 -0.119236 0 
v -0.149893 -0.134 0 
v -0.149521 -0.130584 0 
v 0.118479 -0.108416 0 
v 0.118107 -0.105 0 
v 0.126556 -0.119041 0 
v -0.13486 -0.118131 0 
v -0.131429 -0.118317 0 
v -0.138252 -0.118686 0 
v -0.149521 -0.137416 0 
v 0.118711 -0.100661 0 
v 0.129748 -0.0896865 0 
v 0.13314 -0.0891305 0 
v 0.118479 -0.101584 0 
v 0.145538 -0.0940705 0 
v 0.147618 -0.0968064 0 
v 0.119576 -0.111673 0 
v -0.127946 -0.119306 0 
v -0.1182 -0.135718 0 
v -0.118939 -0.139075 0 
v -0.128117 -0.148764 0 
v -0.131429 -0.149683 0 
v -0.148424 -0.140673 0 
v -0.144289 -0.146113 0 
v -0.146652 -0.143618 0 
v -0.035093 -0.0365003 0 
v 0.136571 -0.0893166 0 
v 0.149061 -0.0999254 0 
v 0.145538 -0.115929 0 
v 0.142919 -0.118154 0 
v 0.149061 -0.110075 0 
v 0.147618 -0.113194 0 
v -0.1182 -0.132282 0 
v -0.118711 -0.129661 0 
v 0.0502829 -0.0210465 0 
v 0.0329537 -0.0241832 0 
v -0.125081 -0.147154 0 
v -0.148424 -0.127327 0 
v 0.139883 -0.090236 0 
v 0.1498 -0.103282 0 
v 0.1498 -0.106718 0 
v -0.120382 -0.142194 0 
v -0.00893771 -0.0317659 0 
v -0.13486 -0.149869 0 
v -0.138252 -0.149314 0 
v -0.141444 -0.148041 0 
v 0.127946 -0.0903055 0 
v 0.142919 -0.0918457 0 
v -0.122462 -0.144929 0 
v -0.127946 -0.119306 0.003 
v -0.0308037 -0.0326751 0.003 
v -0.118711 -0.129661 0.003 
v -0.00464842 -0.0279408 0.003 
v -0.120382 -0.125806 0.003 
v -0.125081 -0.120846 0.003 
v -0.118939 -0.128925 0.003 
v -0.122462 -0.123071 0.003 
v 0.0301119 -0.0216489 0.003 
v 0.047441 -0.0185121 0.003 
v 0.118711 -0.100661 0.003 
v 0.127946 -0.0903055 0.003 
v 0.123711 -0.0928871 0.003 
v 0.126556 -0.0909585 0.003 
v 0.121348 -0.0953821 0.003 
v 0.119576 -0.0983268 0.003 
v -0.149893 -0.134 0.018 
v -0.149521 -0.130584 0.018 
v -0.148424 -0.127327 0.018 
v -0.146652 -0.124382 0.018 
v -0.144289 -0.121887 0.018 
v -0.141444 -0.119959 0.018 
v -0.138252 -0.118686 0.018 
v -0.13486 -0.118131 0.018 
v -0.131429 -0.118317 0.018 
v -0.128117 -0.119236 0.018 
v -0.118107 -0.134 0.018 
v -0.1182 -0.132282 0.018 
v -0.1182 -0.135718 0.018 
v -0.118939 -0.139075 0.018 
v -0.120382 -0.142194 0.018 
v -0.122462 -0.144929 0.018 
v -0.125081 -0.147154 0.018 
v -0.128117 -0.148764 0.018 
v -0.131429 -0.149683 0.018 
v -0.13486 -0.149869 0.018 
v -0.138252 -0.149314 0.018 
v -0.141444 -0.148041 0.018 
v -0.144289 -0.146113 0.018 
v -0.146652 -0.143618 0.018 
v -0.148424 -0.140673 0.018 
v -0.149521 -0.137416 0.018 
v -0.118939 -0.128925 0.018 
v -0.120382 -0.125806 0.018 
v -0.122462 -0.123071 0.018 
v -0.125081 -0.120846 0.018 
v -0.134 -0.134 0.018 
v 0.118107 -0.105 0.018 
v 0.118479 -0.101584 0.018 
v 0.129748 -0.0896865 0.018 
v 0.13314 -0.0891305 0.018 
v 0.136571 -0.0893166 0.018 
v 0.139883 -0.090236 0.018 
v 0.142919 -0.0918457 0.018 
v 0.145538 -0.0940705 0.018 
v 0.147618 -0.0968064 0.018 
v 0.149061 -0.0999254 0.018 
v 0.1498 -0.103282 0.018 
v 0.149893 -0.105 0.018 
v 0.1498 -0.106718 0.018 
v 0.149061 -0.110075 0.018 
v 0.147618 -0.113194 0.018 
v 0.145538 -0.115929 0.018 
v 0.142919 -0.118154 0.018 
v 0.139883 -0.119764 0.018 
v 0.136571 -0.120683 0.018 
v 0.13314 -0.120869 0.018 
v 0.129748 -0.120314 0.018 
v 0.126556 -0.119041 0.018 
v 0.123711 -0.117113 0.018 
v 0.121348 -0.114618 0.018 
v 0.119576 -0.111673 0.018 
v 0.118479 -0.108416 0.018 
v 0.126556 -0.0909585 0.018 
v 0.123711 -0.0928871 0.018 
v 0.121348 -0.0953821 0.018 
v 0.119576 -0.0983268 0.018 
v 0.134 -0.105 0.018 
vn 0 0 1 
vn -1 0 0 
vn -0.976621 0.21497 0 
vn -0.907575 0.419889 0 
vn -0.796093 0.605174 0 
vn -0.647386 0.762162 0 
vn -0.468408 0.883512 0 
vn -0.267528 0.96355 0 
vn -0.0541389 0.998533 0 
vn 0.161782 0.986827 0 
vn 0.370138 0.928977 0 
vn 0.561187 0.827689 0 
vn 0.725995 0.687699 0 
vn 0.856857 0.515554 0 
vn 0.947653 0.319302 0 
vn 0.994138 0.108119 0 
vn 0.994138 -0.108119 0 
vn 1 3.67394e-16 0 
vn 0.947653 -0.319302 0 
vn 0.856857 -0.515554 0 
vn 0.725995 -0.687699 0 
vn 0.561187 -0.827689 0 
vn 0.370138 -0.928977 0 
vn 0.161782 -0.986827 0 
vn -0.0541389 -0.998533 0 
vn -0.267528 -0.96355 0 
vn -0.976621 -0.21497 0 
vn -0.907575 -0.419889 0 
vn -0.962006 -0.273029 0 
vn -0.796093 -0.605174 0 
vn -0.647386 -0.762162 0 
vn -0.468408 -0.883512 0 
vn -0.267528 -0.96355 0 
vn -0.380941 -0.924599 0 
vn -0.907575 -0.419889 0 
vn 0.665573 -0.746333 0 
vn -0.665573 0.746333 0 
vn 0 0 1 
vn 0.125946 0.6958 0.707107 
vn -1 0 0 
vn 0 0 1 
vn -0.665573 -0.746333 0 
vn 0.665573 0.746333 0 
vn 0 0 1 
vn -1 0 0 
vn -0.976621 0.21497 0 
vn -0.907575 0.419889 0 
vn -0.796093 0.605174 0 
vn -0.647386 0.762162 0 
vn -0.468408 0.883512 0 
vn -0.267528 0.96355 0 
vn -0.0541389 0.998533 0 
vn 0.161782 0.986827 0 
vn 0.370138 0.928977 0 
vn 0.561187 0.827689 0 
vn 0.725995 0.687699 0 
vn 0.856857 0.515554 0 
vn 0.947653 0.319302 0 
vn 0.994138 0.108119 0 
vn 0.994138 -0.108119 0 
vn 1 3.67394e-16 0 
vn 0.370138 -0.928977 0 
vn 0.161782 -0.986827 0 
vn -0.0541389 -0.998533 0 
vn -0.267528 -0.96355 0 
vn -0.468408 -0.883512 0 
vn -0.647386 -0.762162 0 
vn -0.796093 -0.605174 0 
vn -0.907575 -0.419889 0 
vn -0.976621 -0.21497 0 
vn 0.561187 -0.827689 0 
vn 0.380941 -0.924599 0 
vn 0.725995 -0.687699 0 
vn 0.856857 -0.515554 0 
vn 0.947653 -0.319302 0 
vn 0.994138 -0.108119 0 
vn 0.962006 -0.273029 0 
vn 0.561187 -0.827689 0 
vn 0 0 1 
vn 0 0 -1 
vn -0.665573 0.746333 0 
vn 0.665573 -0.746333 0 
vn 0 0 1 
vn 0.125946 -0.6958 0.707107 
vn -0.665573 -0.746333 0 
vn 0.665573 0.746333 0 
vn 0 0 1 
vn -1 0 0 
vn -0.976621 0.21497 0 
vn -0.907575 0.419889 0 
vn -0.796093 0.605174 0 
vn -0.647386 0.762162 0 
vn -0.468408 0.883512 0 
vn -0.267528 0.96355 0 
vn -0.0541389 0.998533 0 
vn 0.161782 0.986827 0 
vn 0.370138 0.928977 0 
vn 0.994138 -0.108119 0 
vn 0.994138 0.108119 0 
vn 1 3.67394e-16 0 
vn 0.994138 -0.108119 0 
vn 0.947653 -0.319302 0 
vn 0.856857 -0.515554 0 
vn 0.725995 -0.687699 0 
vn 0.561187 -0.827689 0 
vn 0.370138 -0.928977 0 
vn 0.161782 -0.986827 0 
vn -0.0541389 -0.998533 0 
vn -0.267528 -0.96355 0 
vn -0.468408 -0.883512 0 
vn -0.647386 -0.762162 0 
vn -0.796093 -0.605174 0 
vn -0.907575 -0.419889 0 
vn -0.976621 -0.21497 0 
vn 0.947653 0.319302 0 
vn 0.962006 0.273029 0 
vn 0.856857 0.515554 0 
vn 0.725995 0.687699 0 
vn 0.561187 0.827689 0 
vn 0.370138 0.928977 0 
vn 0.380941 0.924599 0 
vn 0.947653 0.319302 0 
vn 0 0 1 
vn -1 0 0 
vn -0.976621 0.21497 0 
vn -0.267528 0.96355 0 
vn -0.0541389 0.998533 0 
vn 0.161782 0.986827 0 
vn 0.370138 0.928977 0 
vn 0.561187 0.827689 0 
vn 0.725995 0.687699 0 
vn 0.856857 0.515554 0 
vn 0.947653 0.319302 0 
vn 0.994138 0.108119 0 
vn 0.994138 -0.108119 0 
vn 1 3.67394e-16 0 
vn 0.947653 -0.319302 0 
vn 0.856857 -0.515554 0 
vn 0.725995 -0.687699 0 
vn 0.561187 -0.827689 0 
vn 0.370138 -0.928977 0 
vn 0.161782 -0.986827 0 
vn -0.0541389 -0.998533 0 
vn -0.267528 -0.96355 0 
vn -0.468408 -0.883512 0 
vn -0.647386 -0.762162 0 
vn -0.796093 -0.605174 0 
vn -0.907575 -0.419889 0 
vn -0.976621 -0.21497 0 
vn -0.468408 0.883512 0 
vn -0.380941 0.924599 0 
vn -0.647386 0.762162 0 
vn -0.796093 0.605174 0 
vn -0.907575 0.419889 0 
vn -0.976621 0.21497 0 
vn -0.962006 0.273029 0 
vn -0.468408 0.883512 0 
vn 0 0 1 
usemtl 0.647059_0.647059_0.647059_0.000000_0.000000
o mesh0
f 31//1 1//1 2//1 
f 2//1 3//1 31//1 
f 3//1 4//1 31//1 
f 4//1 5//1 31//1 
f 5//1 6//1 31//1 
f 6//1 7//1 31//1 
f 7//1 8//1 31//1 
f 8//1 9//1 31//1 
f 9//1 10//1 31//1 
f 10//1 11//1 31//1 
f 11//1 12//1 31//1 
f 12//1 13//1 31//1 
f 13//1 14//1 31//1 
f 14//1 15//1 31//1 
f 15//1 16//1 31//1 
f 16//1 17//1 31//1 
f 17//1 18//1 31//1 
f 18//1 19//1 31//1 
f 19//1 20//1 31//1 
f 20//1 21//1 31//1 
f 21//1 22//1 31//1 
f 22//1 23//1 31//1 
f 23//1 24//1 31//1 
f 24//1 25//1 31//1 
f 25//1 26//1 31//1 
f 26//1 27//1 31//1 
f 27//1 28//1 31//1 
f 28//1 29//1 31//1 
f 29//1 30//1 31//1 
f 30//1 1//1 31//1 
o mesh1
f 32//2 15//2 14//3 
f 33//3 14//3 13//4 
f 34//4 13//4 12//5 
f 35//5 12//5 11//6 
f 36//6 11//6 10//7 
f 37//7 10//7 9//8 
f 38//8 9//8 8//9 
f 39//9 8//9 7//10 
f 40//10 7//10 6//11 
f 41//11 6//11 5//12 
f 42//12 5//12 4//13 
f 43//13 4//13 3//14 
f 44//14 3//14 2//15 
f 45//15 2//15 1//16 
f 46//17 47//16 30//18 
f 47//16 1//16 30//18 
f 46//17 29//17 28//19 
f 48//19 28//19 27//20 
f 49//20 27//20 26//21 
f 50//21 26//21 25//22 
f 51//22 25//22 24//23 
f 52//23 24//23 23//24 
f 53//24 23//24 22//25 
f 54//25 22//25 21//26 
f 55//27 16//27 15//2 
f 17//28 16//27 56//29 
f 55//27 57//29 56//29 
f 56//29 16//27 55//27 
f 58//30 18//30 17//28 
f 59//31 19//31 18//30 
f 60//32 20//32 19//31 
f 61//33 21//26 62//34 
f 20//32 60//32 62//34 
f 62//34 21//26 20//32 
f 62//34 63//34 61//33 
f 19//31 59//31 60//32 
f 18//30 58//30 59//31 
f 17//28 64//35 58//30 
f 56//29 64//35 17//28 
f 15//2 32//2 55//27 
f 21//26 61//33 54//25 
f 22//25 54//25 53//24 
f 23//24 53//24 52//23 
f 24//23 52//23 51//22 
f 25//22 51//22 50//21 
f 26//21 50//21 49//20 
f 27//20 49//20 48//19 
f 28//19 48//19 46//17 
f 30//18 29//17 46//17 
f 1//16 47//16 45//15 
f 2//15 45//15 44//14 
f 3//14 44//14 43//13 
f 4//13 43//13 42//12 
f 5//12 42//12 41//11 
f 6//11 41//11 40//10 
f 7//10 40//10 39//9 
f 8//9 39//9 38//8 
f 9//8 38//8 37//7 
f 10//7 37//7 36//6 
f 11//6 36//6 35//5 
f 12//5 35//5 34//4 
f 13//4 34//4 33//3 
f 14//3 33//3 32//2 
o mesh2
f 62//36 65//36 66//36 
f 66//36 63//36 62//36 
o mesh3
f 56//37 57//37 67//37 
f 67//37 68//37 56//37 
o mesh4
f 58//38 68//38 65//38 
f 65//38 62//38 60//38 
f 68//38 58//38 64//38 
f 60//38 59//38 65//38 
f 65//38 59//38 58//38 
f 64//38 56//38 68//38 
o mesh5
f 69//39 68//39 70//39 
f 71//39 72//39 69//39 
f 69//39 65//39 68//39 
f 69//39 73//39 74//39 
f 69//39 75//39 65//39 
f 70//39 73//39 69//39 
f 75//39 66//39 65//39 
f 67//39 76//39 70//39 
f 70//39 68//39 67//39 
f 69//39 74//39 71//39 
o mesh6
f 71//40 77//40 78//40 
f 78//40 72//40 71//40 
o mesh7
f 69//41 72//41 78//41 
o mesh8
f 79//42 80//42 74//42 
f 74//42 73//42 79//42 
o mesh9
f 81//43 70//43 76//43 
f 76//43 82//43 81//43 
o mesh10
f 83//44 84//44 73//44 
f 70//44 81//44 85//44 
f 73//44 84//44 86//44 
f 85//44 83//44 70//44 
f 73//44 70//44 83//44 
f 86//44 79//44 73//44 
o mesh11
f 87//45 88//45 89//46 
f 90//46 89//46 91//47 
f 92//47 91//47 93//48 
f 94//48 93//48 95//49 
f 96//49 95//49 97//50 
f 98//50 97//50 99//51 
f 100//51 99//51 101//52 
f 102//52 101//52 103//53 
f 104//53 103//53 105//54 
f 106//54 105//54 107//55 
f 108//55 107//55 109//56 
f 110//56 109//56 111//57 
f 112//57 111//57 113//58 
f 114//58 113//58 115//59 
f 116//60 117//59 118//61 
f 117//59 115//59 118//61 
f 119//62 120//62 121//63 
f 122//63 121//63 123//64 
f 124//64 123//64 125//65 
f 126//65 125//65 127//66 
f 128//66 127//66 129//67 
f 130//67 129//67 131//68 
f 132//68 131//68 133//69 
f 134//69 133//69 135//70 
f 136//70 135//70 88//45 
f 137//71 120//62 79//72 
f 119//62 80//72 79//72 
f 79//72 120//62 119//62 
f 84//73 138//73 137//71 
f 83//74 139//74 138//73 
f 85//75 140//75 139//74 
f 116//60 141//76 81//77 
f 140//75 85//75 81//77 
f 81//77 141//76 140//75 
f 81//77 82//77 116//60 
f 139//74 83//74 85//75 
f 138//73 84//73 83//74 
f 137//71 86//78 84//73 
f 79//72 86//78 137//71 
f 88//45 87//45 136//70 
f 135//70 136//70 134//69 
f 133//69 134//69 132//68 
f 131//68 132//68 130//67 
f 129//67 130//67 128//66 
f 127//66 128//66 126//65 
f 125//65 126//65 124//64 
f 123//64 124//64 122//63 
f 121//63 122//63 119//62 
f 118//61 141//76 116//60 
f 115//59 117//59 114//58 
f 113//58 114//58 112//57 
f 111//57 112//57 110//56 
f 109//56 110//56 108//55 
f 107//55 108//55 106//54 
f 105//54 106//54 104//53 
f 103//53 104//53 102//52 
f 101//52 102//52 100//51 
f 99//51 100//51 98//50 
f 97//50 98//50 96//49 
f 95//49 96//49 94//48 
f 93//48 94//48 92//47 
f 91//47 92//47 90//46 
f 89//46 90//46 87//45 
o mesh12
f 142//79 115//79 113//79 
f 113//79 111//79 142//79 
f 111//79 109//79 142//79 
f 109//79 107//79 142//79 
f 107//79 105//79 142//79 
f 105//79 103//79 142//79 
f 103//79 101//79 142//79 
f 101//79 99//79 142//79 
f 99//79 97//79 142//79 
f 97//79 95//79 142//79 
f 95//79 93//79 142//79 
f 93//79 91//79 142//79 
f 91//79 89//79 142//79 
f 89//79 88//79 142//79 
f 88//79 135//79 142//79 
f 135//79 133//79 142//79 
f 133//79 131//79 142//79 
f 131//79 129//79 142//79 
f 129//79 127//79 142//79 
f 127//79 125//79 142//79 
f 125//79 123//79 142//79 
f 123//79 121//79 142//79 
f 121//79 120//79 142//79 
f 120//79 137//79 142//79 
f 137//79 138//79 142//79 
f 138//79 139//79 142//79 
f 139//79 140//79 142//79 
f 140//79 141//79 142//79 
f 141//79 118//79 142//79 
f 118//79 115//79 142//79 
o mesh13
f 92//80 136//80 87//80 
f 92//80 134//80 136//80 
f 92//80 128//80 130//80 
f 143//80 144//80 145//80 
f 146//80 147//80 148//80 
f 149//80 150//80 151//80 
f 152//80 153//80 154//80 
f 92//80 132//80 134//80 
f 92//80 126//80 128//80 
f 92//80 119//80 122//80 
f 55//80 38//80 39//80 
f 33//80 36//80 37//80 
f 33//80 34//80 35//80 
f 143//80 155//80 156//80 
f 143//80 157//80 144//80 
f 157//80 143//80 146//80 
f 149//80 158//80 159//80 
f 151//80 160//80 149//80 
f 152//80 161//80 153//80 
f 130//80 132//80 92//80 
f 122//80 124//80 92//80 
f 119//80 102//80 104//80 
f 80//80 112//80 114//80 
f 55//80 41//80 42//80 
f 39//80 40//80 55//80 
f 35//80 36//80 33//80 
f 38//80 55//80 32//80 
f 55//80 48//80 49//80 
f 77//80 71//80 74//80 
f 57//80 53//80 54//80 
f 162//80 163//80 164//80 
f 165//80 166//80 167//80 
f 143//80 168//80 155//80 
f 148//80 157//80 146//80 
f 169//80 170//80 171//80 
f 152//80 172//80 173//80 
f 160//80 158//80 149//80 
f 152//80 174//80 161//80 
f 152//80 175//80 176//80 
f 119//80 92//80 94//80 
f 124//80 126//80 92//80 
f 108//80 110//80 80//80 
f 104//80 106//80 119//80 
f 114//80 117//80 80//80 
f 55//80 43//80 44//80 
f 40//80 41//80 55//80 
f 32//80 33//80 38//80 
f 55//80 46//80 48//80 
f 177//80 76//80 67//80 
f 74//80 177//80 77//80 
f 57//80 52//80 53//80 
f 164//80 178//80 162//80 
f 167//80 179//80 165//80 
f 145//80 168//80 143//80 
f 165//80 180//80 181//80 
f 165//80 182//80 183//80 
f 169//80 184//80 170//80 
f 185//80 169//80 177//80 
f 66//80 186//80 187//80 
f 152//80 188//80 172//80 
f 152//80 189//80 149//80 
f 176//80 174//80 152//80 
f 119//80 96//80 98//80 
f 87//80 90//80 92//80 
f 106//80 108//80 119//80 
f 80//80 110//80 112//80 
f 44//80 45//80 55//80 
f 37//80 38//80 33//80 
f 50//80 51//80 57//80 
f 55//80 47//80 46//80 
f 57//80 63//80 66//80 
f 74//80 76//80 177//80 
f 57//80 51//80 52//80 
f 178//80 190//80 162//80 
f 179//80 191//80 165//80 
f 166//80 165//80 162//80 
f 181//80 143//80 165//80 
f 165//80 192//80 182//80 
f 171//80 193//80 169//80 
f 177//80 66//80 194//80 
f 66//80 75//80 186//80 
f 173//80 195//80 152//80 
f 188//80 152//80 169//80 
f 154//80 189//80 152//80 
f 152//80 196//80 197//80 
f 94//80 96//80 119//80 
f 119//80 100//80 102//80 
f 82//80 76//80 74//80 
f 117//80 116//80 80//80 
f 42//80 43//80 55//80 
f 49//80 50//80 55//80 
f 67//80 66//80 177//80 
f 54//80 61//80 57//80 
f 162//80 198//80 163//80 
f 162//80 187//80 186//80 
f 162//80 199//80 166//80 
f 183//80 180//80 165//80 
f 169//80 185//80 184//80 
f 187//80 194//80 66//80 
f 169//80 200//80 188//80 
f 197//80 175//80 152//80 
f 80//80 119//80 108//80 
f 116//80 82//80 80//80 
f 57//80 55//80 50//80 
f 61//80 63//80 57//80 
f 186//80 198//80 162//80 
f 156//80 165//80 143//80 
f 177//80 194//80 185//80 
f 159//80 152//80 149//80 
f 74//80 80//80 82//80 
f 66//80 67//80 57//80 
f 191//80 192//80 165//80 
f 195//80 196//80 152//80 
f 45//80 47//80 55//80 
f 193//80 200//80 169//80 
f 190//80 199//80 162//80 
f 98//80 100//80 119//80 
o mesh14
f 201//81 202//81 177//81 
f 177//81 169//81 201//81 
o mesh15
f 203//82 185//82 194//82 
f 194//82 204//82 203//82 
o mesh16
f 205//83 204//83 202//83 
f 202//83 201//83 206//83 
f 204//83 205//83 207//83 
f 206//83 208//83 202//83 
f 202//83 208//83 205//83 
f 207//83 203//83 204//83 
o mesh17
f 69//84 204//84 209//84 
f 69//84 202//84 204//84 
f 77//84 177//84 69//84 
f 209//84 210//84 69//84 
f 69//84 78//84 77//84 
f 177//84 202//84 69//84 
f 187//84 209//84 204//84 
f 210//84 75//84 69//84 
f 210//84 186//84 75//84 
f 204//84 194//84 187//84 
o mesh18
f 211//85 209//85 187//85 
f 187//85 162//85 211//85 
o mesh19
f 212//86 198//86 186//86 
f 186//86 210//86 212//86 
o mesh20
f 210//87 213//87 214//87 
f 215//87 213//87 210//87 
f 210//87 209//87 215//87 
f 209//87 211//87 216//87 
f 216//87 215//87 209//87 
f 214//87 212//87 210//87 
o mesh21
f 153//88 217//88 218//89 
f 154//89 218//89 219//90 
f 189//90 219//90 220//91 
f 149//91 220//91 221//92 
f 150//92 221//92 222//93 
f 151//93 222//93 223//94 
f 160//94 223//94 224//95 
f 158//95 224//95 225//96 
f 159//96 225//96 226//97 
f 170//98 184//99 227//100 
f 184//99 228//99 227//100 
f 170//98 229//101 230//102 
f 171//102 230//102 231//103 
f 193//103 231//103 232//104 
f 200//104 232//104 233//105 
f 188//105 233//105 234//106 
f 172//106 234//106 235//107 
f 173//107 235//107 236//108 
f 195//108 236//108 237//109 
f 196//109 237//109 238//110 
f 197//110 238//110 239//111 
f 175//111 239//111 240//112 
f 176//112 240//112 241//113 
f 174//113 241//113 242//114 
f 161//114 242//114 217//88 
f 243//115 228//99 203//116 
f 184//99 185//116 203//116 
f 203//116 228//99 184//99 
f 205//117 244//117 243//115 
f 208//118 245//118 244//117 
f 206//119 246//119 245//118 
f 152//120 226//97 201//121 
f 246//119 206//119 201//121 
f 201//121 226//97 246//119 
f 201//121 169//121 152//120 
f 245//118 208//118 206//119 
f 244//117 205//117 208//118 
f 243//115 207//122 205//117 
f 203//116 207//122 243//115 
f 217//88 153//88 161//114 
f 242//114 161//114 174//113 
f 241//113 174//113 176//112 
f 240//112 176//112 175//111 
f 239//111 175//111 197//110 
f 238//110 197//110 196//109 
f 237//109 196//109 195//108 
f 236//108 195//108 173//107 
f 235//107 173//107 172//106 
f 234//106 172//106 188//105 
f 233//105 188//105 200//104 
f 232//104 200//104 193//103 
f 231//103 193//103 171//102 
f 230//102 171//102 170//98 
f 227//100 229//101 170//98 
f 226//97 152//120 159//96 
f 225//96 159//96 158//95 
f 224//95 158//95 160//94 
f 223//94 160//94 151//93 
f 222//93 151//93 150//92 
f 221//92 150//92 149//91 
f 220//91 149//91 189//90 
f 219//90 189//90 154//89 
f 218//89 154//89 153//88 
o mesh22
f 247//123 228//123 243//123 
f 243//123 244//123 247//123 
f 244//123 245//123 247//123 
f 245//123 246//123 247//123 
f 246//123 226//123 247//123 
f 226//123 225//123 247//123 
f 225//123 224//123 247//123 
f 224//123 223//123 247//123 
f 223//123 222//123 247//123 
f 222//123 221//123 247//123 
f 221//123 220//123 247//123 
f 220//123 219//123 247//123 
f 219//123 218//123 247//123 
f 218//123 217//123 247//123 
f 217//123 242//123 247//123 
f 242//123 241//123 247//123 
f 241//123 240//123 247//123 
f 240//123 239//123 247//123 
f 239//123 238//123 247//123 
f 238//123 237//123 247//123 
f 237//123 236//123 247//123 
f 236//123 235//123 247//123 
f 235//123 234//123 247//123 
f 234//123 233//123 247//123 
f 233//123 232//123 247//123 
f 232//123 231//123 247//123 
f 231//123 230//123 247//123 
f 230//123 229//123 247//123 
f 229//123 227//123 247//123 
f 227//123 228//123 247//123 
o mesh23
f 156//124 248//124 249//125 
f 163//126 250//126 251//127 
f 164//127 251//127 252//128 
f 178//128 252//128 253//129 
f 190//129 253//129 254//130 
f 199//130 254//130 255//131 
f 166//131 255//131 256//132 
f 167//132 256//132 257//133 
f 179//133 257//133 258//134 
f 192//135 191//134 259//136 
f 191//134 258//134 259//136 
f 192//135 260//135 261//137 
f 182//137 261//137 262//138 
f 183//138 262//138 263//139 
f 180//139 263//139 264//140 
f 181//140 264//140 265//141 
f 143//141 265//141 266//142 
f 146//142 266//142 267//143 
f 147//143 267//143 268//144 
f 148//144 268//144 269//145 
f 157//145 269//145 270//146 
f 144//146 270//146 271//147 
f 145//147 271//147 272//148 
f 168//148 272//148 273//149 
f 155//149 273//149 248//124 
f 274//150 250//126 212//151 
f 163//126 198//151 212//151 
f 212//151 250//126 163//126 
f 213//152 275//152 274//150 
f 215//153 276//153 275//152 
f 216//154 277//154 276//153 
f 165//155 249//125 211//156 
f 277//154 216//154 211//156 
f 211//156 249//125 277//154 
f 211//156 162//156 165//155 
f 276//153 215//153 216//154 
f 275//152 213//152 215//153 
f 274//150 214//157 213//152 
f 212//151 214//157 274//150 
f 248//124 156//124 155//149 
f 273//149 155//149 168//148 
f 272//148 168//148 145//147 
f 271//147 145//147 144//146 
f 270//146 144//146 157//145 
f 269//145 157//145 148//144 
f 268//144 148//144 147//143 
f 267//143 147//143 146//142 
f 266//142 146//142 143//141 
f 265//141 143//141 181//140 
f 264//140 181//140 180//139 
f 263//139 180//139 183//138 
f 262//138 183//138 182//137 
f 261//137 182//137 192//135 
f 259//136 260//135 192//135 
f 258//134 191//134 179//133 
f 257//133 179//133 167//132 
f 256//132 167//132 166//131 
f 255//131 166//131 199//130 
f 254//130 199//130 190//129 
f 253//129 190//129 178//128 
f 252//128 178//128 164//127 
f 251//127 164//127 163//126 
f 249//125 165//155 156//124 
o mesh24
f 278//158 258//158 257//158 
f 257//158 256//158 278//158 
f 256//158 255//158 278//158 
f 255//158 254//158 278//158 
f 254//158 253//158 278//158 
f 253//158 252//158 278//158 
f 252//158 251//158 278//158 
f 251//158 250//158 278//158 
f 250//158 274//158 278//158 
f 274//158 275//158 278//158 
f 275//158 276//158 278//158 
f 276//158 277//158 278//158 
f 277//158 249//158 278//158 
f 249//158 248//158 278//158 
f 248//158 273//158 278//158 
f 273//158 272//158 278//158 
f 272//158 271//158 278//158 
f 271//158 270//158 278//158 
f 270//158 269//158 278//158 
f 269//158 268//158 278//158 
f 268//158 267//158 278//158 
f 267//158 266//158 278//158 
f 266//158 265//158 278//158 
f 265//158 264//158 278//158 
f 264//158 263//158 278//158 
f 263//158 262//158 278//158 
f 262//158 261//158 278//158 
f 261//158 260//158 278//158 
f 260//158 259//158 278//158 
f 259//158 258//158 278//158 
